<?xml version="1.0" encoding="UTF-8" standalone="no"?>
<svg
   xmlns:dc="http://purl.org/dc/elements/1.1/"
   xmlns:cc="http://creativecommons.org/ns#"
   xmlns:rdf="http://www.w3.org/1999/02/22-rdf-syntax-ns#"
   xmlns:svg="http://www.w3.org/2000/svg"
   xmlns="http://www.w3.org/2000/svg"
   xmlns:sodipodi="http://sodipodi.sourceforge.net/DTD/sodipodi-0.dtd"
   xmlns:inkscape="http://www.inkscape.org/namespaces/inkscape"
   height="512"
   width="512"
   id="Outline"
   viewBox="0 0 512 512"
   version="1.1"
   sodipodi:docname="close.svg"
   inkscape:version="1.0 (4035a4fb49, 2020-05-01)">
  <metadata
     id="metadata11">
    <rdf:RDF>
      <cc:Work
         rdf:about="">
        <dc:format>image/svg+xml</dc:format>
        <dc:type
           rdf:resource="http://purl.org/dc/dcmitype/StillImage" />
        <dc:title>180 cross</dc:title>
      </cc:Work>
    </rdf:RDF>
  </metadata>
  <defs
     id="defs9" />
  <sodipodi:namedview
     inkscape:document-rotation="0"
     pagecolor="#ffffff"
     bordercolor="#666666"
     borderopacity="1"
     objecttolerance="10"
     gridtolerance="10"
     guidetolerance="10"
     inkscape:pageopacity="0"
     inkscape:pageshadow="2"
     inkscape:window-width="1366"
     inkscape:window-height="745"
     id="namedview7"
     showgrid="false"
     inkscape:zoom="1.0839844"
     inkscape:cx="256"
     inkscape:cy="256"
     inkscape:window-x="-8"
     inkscape:window-y="-8"
     inkscape:window-maximized="1"
     inkscape:current-layer="Outline" />
  <title
     id="title2">180 cross</title>
  <path
     d="m 437.37803,70.023774 v 0 a 15.45311,15.45311 0 0 0 -21.8507,0 L 256.46847,229.08264 97.409612,70.023774 a 15.45311,15.45311 0 0 0 -21.850701,0 v 0 a 15.45311,15.45311 0 0 0 0,21.850698 L 234.61778,250.93333 75.558911,409.99219 a 15.45311,15.45311 0 0 0 0,21.8507 v 0 a 15.45311,15.45311 0 0 0 21.850701,0 L 256.46847,272.78402 415.52733,431.84289 a 15.45311,15.45311 0 0 0 21.8507,0 v 0 a 15.45311,15.45311 0 0 0 0,-21.8507 L 278.31916,250.93333 437.37803,91.874472 a 15.45311,15.45311 0 0 0 0,-21.850698 z"
     id="path4"
     style="fill:#ffffff;stroke-width:15.4531" />
</svg>
