<?xml version="1.0" encoding="UTF-8" standalone="no"?>
<svg
   class="ionicon"
   viewBox="0 0 512 512"
   version="1.1"
   id="svg6"
   sodipodi:docname="volumehigh.svg"
   inkscape:version="1.1.1 (3bf5ae0d25, 2021-09-20)"
   xmlns:inkscape="http://www.inkscape.org/namespaces/inkscape"
   xmlns:sodipodi="http://sodipodi.sourceforge.net/DTD/sodipodi-0.dtd"
   xmlns="http://www.w3.org/2000/svg"
   xmlns:svg="http://www.w3.org/2000/svg">
  <defs
     id="defs10" />
  <sodipodi:namedview
     id="namedview8"
     pagecolor="#ffffff"
     bordercolor="#666666"
     borderopacity="1.0"
     inkscape:pageshadow="2"
     inkscape:pageopacity="0.0"
     inkscape:pagecheckerboard="0"
     showgrid="false"
     inkscape:zoom="1.09375"
     inkscape:cx="256"
     inkscape:cy="256.45714"
     inkscape:window-width="1366"
     inkscape:window-height="745"
     inkscape:window-x="-8"
     inkscape:window-y="-8"
     inkscape:window-maximized="1"
     inkscape:current-layer="svg6" />
  <title
     id="title2">Volume High</title>
  <path
     d="M126 192H56a8 8 0 00-8 8v112a8 8 0 008 8h69.65a15.93 15.93 0 0110.14 3.54l91.47 74.89A8 8 0 00240 392V120a8 8 0 00-12.74-6.43l-91.47 74.89A15 15 0 01126 192zM320 320c9.74-19.38 16-40.84 16-64 0-23.48-6-44.42-16-64M368 368c19.48-33.92 32-64.06 32-112s-12-77.74-32-112M416 416c30-46 48-91.43 48-160s-18-113-48-160"
     fill="none"
     stroke="currentColor"
     stroke-linecap="round"
     stroke-linejoin="round"
     stroke-width="32"
     id="path4"
     style="stroke:#ffffff;stroke-opacity:1" />
</svg>
